<svg width="18" height="18" viewBox="0 0 18 18" fill="none" xmlns="http://www.w3.org/2000/svg">
<path fill-rule="evenodd" clip-rule="evenodd" d="M2.91286 8.24625C2.91286 5.30073 5.30068 2.91292 8.2462 2.91292C11.1917 2.91292 13.5795 5.30073 13.5795 8.24625C13.5795 9.68547 13.0095 10.9915 12.0828 11.951C12.0582 11.9695 12.0346 11.99 12.0123 12.0124C11.9899 12.0347 11.9694 12.0583 11.9509 12.0829C10.9915 13.0095 9.6854 13.5796 8.2462 13.5796C5.30068 13.5796 2.91286 11.1918 2.91286 8.24625ZM12.4653 13.4082C11.3161 14.3487 9.84703 14.9129 8.2462 14.9129C4.5643 14.9129 1.57953 11.9281 1.57953 8.24625C1.57953 4.56435 4.5643 1.57958 8.2462 1.57958C11.9281 1.57958 14.9129 4.56435 14.9129 8.24625C14.9129 9.84711 14.3486 11.3162 13.4081 12.4654L16.2176 15.2749C16.4779 15.5352 16.4779 15.9573 16.2176 16.2177C15.9572 16.478 15.5351 16.478 15.2748 16.2177L12.4653 13.4082Z" fill="#2D3440"/>
</svg>
